<svg id="Ebene_1" data-name="Ebene 1" xmlns="http://www.w3.org/2000/svg" viewBox="0 0 113.39 113.39"><defs><style>.cls-1{fill:#ec6408;}.cls-2{fill:#fff;}</style></defs><title>kleber</title><path class="cls-1" d="M56.69,113.39A56.7,56.7,0,1,0,0,56.69a56.71,56.71,0,0,0,56.69,56.7" transform="translate(0 0)"/><path class="cls-2" d="M34.61,93.3c1.62-3.43,3.46-3.77,5.82-2.66,2.11,1,3.63,2.64,1.3,6.51l-1.51-.22c1.13-1.79,1.05-2.85-.95-3.8-2.28-1.08-2.79-.27-3.63,1.5L34,98.07l5.61,2.64-1.07,2.22-6.94-3.28Z" transform="translate(0 0)"/><path class="cls-2" d="M26.48,85.86l5.58,4.64c.54-1.19-.25-2.33-1.69-3.53a10.1,10.1,0,0,0-2.3-1.5l1.35-2A8.61,8.61,0,0,1,32,85.1h0c2.45,2,2.65,4.61.67,7s-4.52,2.72-6.76.84S23.76,88.38,26.48,85.86Zm4.65,5.78-4.48-3.73c-.61,1-.23,2,1,3S30.12,92.4,31.13,91.64Z" transform="translate(0 0)"/><path class="cls-2" d="M21.17,83.47l2.41-1.77c1-.73.9-1.42-1.31-3.52l2.12-1.72C27.32,79,27,81,24.64,82.7L22,84.62l1.29,1.76L21.15,88l-1.3-1.77-1.61,1.18-.84-1.15L19,85l-2.34-3.19,2.16-1.58Z" transform="translate(0 0)"/><path class="cls-2" d="M18.6,69.23l2.14-.94,3.2,7.26-1.51.66-7.07-2.54,2,4.54-2.13.94-3.06-6.94,1.51-.67,7,2.55Z" transform="translate(0 0)"/><path class="cls-2" d="M13.34,65l2.94-.53c1.22-.22,1.44-.88.37-3.74l2.66-.61c1.53,3.54.32,5.2-2.52,5.71l-3.2.57L14,68.58,11.35,69,11,66.89l-2,.35-.25-1.41,2-.35L10,61.59l2.63-.47Z" transform="translate(0 0)"/><path class="cls-2" d="M11.43,45.15l9.29,1.54-.19,1.14-1.38,0a4.55,4.55,0,0,1,1,3.89A3.36,3.36,0,0,1,16,54.62l-6-1,.23-1.41,5.11.85c1.17.19,1.86-.22,2.15-2a4.32,4.32,0,0,0-.87-3.68l-5.44-.9Z" transform="translate(0 0)"/><path class="cls-2" d="M25.09,37.2l-.61,1.29-4.7-2.22c-1-.49-1.81-.27-2.65,1.51a4.58,4.58,0,0,0-.29,3.92l5,2.36-.62,1.31-8.52-4L13.33,40l1.18.56a4.78,4.78,0,0,1,.25-4.11c1-2.21,2.91-2.79,4.83-1.88Z" transform="translate(0 0)"/><path class="cls-2" d="M22.63,29.63,25,31.48c1,.77,1.62.5,3-2.2l2.22,1.58c-1.62,3.49-3.67,3.69-5.93,1.91l-2.56-2-1.35,1.72-2.1-1.65,1.36-1.72-1.57-1.24L19,26.74,20.53,28,23,24.87l2.1,1.66Z" transform="translate(0 0)"/><path class="cls-2" d="M35.57,21.86l-5.75,4.43c1,.78,2.33.27,3.81-.88a10.08,10.08,0,0,0,2-1.91l1.65,1.75a8.43,8.43,0,0,1-2.16,2.17h0c-2.52,1.94-5.07,1.58-7-.88s-1.66-5,.67-6.78S33.71,18.65,35.57,21.86Zm-6.66,3.27,4.63-3.56c-.86-.82-1.87-.65-3.16.35S28.4,24,28.91,25.13Z" transform="translate(0 0)"/><path class="cls-2" d="M41,16.4c-2.1,1-2.85,2-3.16,2.76l2.33,5-1.3.61-4-8.53,1.31-.61.58,1.24a5.19,5.19,0,0,1,3-3.14Z" transform="translate(0 0)"/><path class="cls-2" d="M50.46,17.76c.54,2.14-.75,3.35-2.92,3.89A10.6,10.6,0,0,1,44.4,22l-.35-2.61a7.76,7.76,0,0,0,3.06-.18c1-.27,2.12-.59,1.93-1.31s-1.32-.63-2.49-.5c-1.75.18-3.2-.06-3.62-1.7-.56-2.21.78-3.32,2.8-3.84a12.09,12.09,0,0,1,2.83-.37L48.91,14a10.78,10.78,0,0,0-2.57.28c-1.14.29-2.24.58-2.08,1.21s1.55.6,2.55.51C48.61,15.84,50,16,50.46,17.76Z" transform="translate(0 0)"/><path class="cls-2" d="M55.31,13.52l.1,3c0,1.24.66,1.55,3.64.9l.23,2.73c-3.72,1-5.2-.44-5.29-3.32l-.1-3.25-2.19.07L51.62,11l2.19-.07-.07-2,1.43-.05.06,2,4-.13.08,2.67Z" transform="translate(0 0)"/><path class="cls-2" d="M71.13,12.87l-2,9.21L68,21.83l.1-1.37a4.53,4.53,0,0,1-3.93.8A3.36,3.36,0,0,1,61.45,17L62.74,11l1.39.31-1.1,5c-.25,1.16.13,1.88,1.84,2.25A4.33,4.33,0,0,0,68.58,18l1.18-5.4ZM64.91,9.25A1.07,1.07,0,0,1,67,9.7a1.07,1.07,0,0,1-2.1-.45ZM68,9.92a1.07,1.07,0,0,1,2.09.45A1.07,1.07,0,0,1,68,9.92Z" transform="translate(0 0)"/><path class="cls-2" d="M75.87,17.9l-1.28,2.7c-.53,1.12-.11,1.68,2.84,2.46l-1.05,2.53c-3.77-.8-4.42-2.75-3.19-5.36l1.39-2.94-2-.94,1.14-2.41,2,.93.85-1.8,1.29.61L77,15.48l3.58,1.69-1.14,2.42Z" transform="translate(0 0)"/><path class="cls-2" d="M84.87,29.3l-1.45,1.83-6.23-4.91,1-1.3,7.43-1.07-3.9-3.07L83.19,19l6,4.71-1,1.29L80.7,26Z" transform="translate(0 0)"/><path class="cls-2" d="M92.13,35.91l-4.57-5.64c-.76,1.06-.21,2.34,1,3.79a10.12,10.12,0,0,0,2,1.93l-1.71,1.69a8.42,8.42,0,0,1-2.22-2.1h0c-2-2.47-1.7-5,.71-7,2.26-1.83,5-1.78,6.8.5S95.29,34,92.13,35.91ZM88.7,29.33l3.67,4.54c.8-.87.6-1.87-.43-3.15S89.84,28.79,88.7,29.33Z" transform="translate(0 0)"/><path class="cls-2" d="M92.88,47.55l-.54-1.32,4.79-2c1.07-.44,1.43-1.15.68-3a4.57,4.57,0,0,0-2.71-2.86L90,40.53l-.55-1.33,8.7-3.59.55,1.33-1.2.49a4.81,4.81,0,0,1,2.87,3c.93,2.26.1,4-1.86,4.84Z" transform="translate(0 0)"/><path class="cls-2" d="M94.19,49.54a1.2,1.2,0,1,1-1,1.39A1.21,1.21,0,0,1,94.19,49.54Zm3.2,1.33-.24-1.3,7.47-1.43.27,1.5Z" transform="translate(0 0)"/><path class="cls-2" d="M57.24,37.18l-2.37,7.54H53.15l-1-5.08-1.42,5.08H48.92L47,37.19h1.17L49.54,43l1.56-5.86h1.74l1,5.55,1.68-5.56Z" transform="translate(0 0)"/><path class="cls-2" d="M64.64,41.63H58.83c.28,1,1.35,1.3,2.85,1.3a8,8,0,0,0,2.18-.25l.19,1.92a6.81,6.81,0,0,1-2.42.32h0a3.62,3.62,0,0,1-4-4c0-2.33,1.39-4,3.73-4S65,38.69,64.64,41.63Zm-5.82-1.18h4.67c-.15-.93-.87-1.32-2.18-1.32S59.06,39.47,58.82,40.45Z" transform="translate(0 0)"/><path class="cls-2" d="M49.61,59.12H48.48V55c0-.92-.42-1.4-1.87-1.4a3.61,3.61,0,0,0-2.66,1v4.59H42.81V55c0-.92-.42-1.4-1.87-1.4a3.53,3.53,0,0,0-2.82,1.12v4.43H37V51.59h1.15v1a3.71,3.71,0,0,1,2.93-1.22,2.73,2.73,0,0,1,2.58,1.4,3.69,3.69,0,0,1,3.1-1.4,2.68,2.68,0,0,1,2.88,2.85Z" transform="translate(0 0)"/><path class="cls-2" d="M58.64,51.59v7.53h-.91l-.12-1a3.83,3.83,0,0,1-6.56-2.79,3.67,3.67,0,0,1,3.8-3.95,3.51,3.51,0,0,1,2.76,1.2l.12-1Zm-1.12,3.93v-.33c-.11-1.1-1.2-1.65-2.64-1.65s-2.74.42-2.74,1.83,1.18,1.82,2.74,1.82S57.44,56.64,57.52,55.52Z" transform="translate(0 0)"/><path class="cls-2" d="M64.34,55l3.18,4.09H66.11l-2.56-3.23L61.62,58v1.15H60.48v-10h1.14v6.23l3.49-3.79h2.44Z" transform="translate(0 0)"/><path class="cls-2" d="M74.85,56H69c.28,1,1.35,1.3,2.85,1.3a8,8,0,0,0,2.18-.25L74.26,59a6.81,6.81,0,0,1-2.42.32h0a3.61,3.61,0,0,1-4-4c0-2.33,1.39-4,3.73-4S75.23,53.09,74.85,56ZM69,54.85H73.7c-.15-.94-.87-1.32-2.17-1.32S69.27,53.87,69,54.85Z" transform="translate(0 0)"/><path class="cls-2" d="M41.83,63.65a.89.89,0,0,1,.89-.88.89.89,0,0,1,0,1.77A.89.89,0,0,1,41.83,63.65ZM42.14,66h1.14v7.53H42.14Z" transform="translate(0 0)"/><path class="cls-2" d="M47.6,68.12v2.39c0,1,.49,1.26,2.89.82l.11,2.18c-3,.71-4.14-.48-4.14-2.78V68.12H44.71V66h1.75v-1.6H47.6V66h3.17v2.13Z" transform="translate(0 0)"/><path class="cls-2" d="M52.5,72.67a1,1,0,1,1,1,1A1,1,0,0,1,52.5,72.67Z" transform="translate(0 0)"/><path class="cls-2" d="M60.77,71.29,61,73.4a4,4,0,0,1-1.75.32,4,4,0,0,1,0-7.92,4.06,4.06,0,0,1,1.9.38l-.3,2.09a3.44,3.44,0,0,0-1.52-.33c-1.55,0-2.75.42-2.75,1.83s1.19,1.82,2.67,1.82A3.39,3.39,0,0,0,60.77,71.29Z" transform="translate(0 0)"/><path class="cls-2" d="M69.83,73.52H68.69V69.37c0-.92-.42-1.4-2-1.4a3.66,3.66,0,0,0-2.93,1.11v4.44H62.63v-10h1.14V67a3.83,3.83,0,0,1,3-1.21,2.71,2.71,0,0,1,3,2.85Z" transform="translate(0 0)"/></svg>