<svg id="Ebene_1" data-name="Ebene 1" xmlns="http://www.w3.org/2000/svg" viewBox="0 0 1090.34 507.16"><defs><style>.cls-1{fill:#312783;}</style></defs><title>logo</title><path class="cls-1" d="M611.68,190.58l60.2,27.95-1.61,14.9-64.94,15.92.94-8.66,54.79-13-50.79-24.08Z" transform="translate(0 -1)"/><path class="cls-1" d="M675.78,148.21l-16,36c7,1.07,11.82-4.72,16-14A54,54,0,0,0,680.18,156l12.43,4.1c.07,2.44-1.37,8.48-4.68,15.92l0,.07c-7,15.78-20.14,20.63-35.53,13.78-14.44-6.42-20.87-19.61-14.34-34.08C644.72,140.72,658.61,137.72,675.78,148.21Zm-23.34,32.84,12.87-28.94c-6.2-1.69-10.56,1.71-14.17,9.82C647.67,169.74,647,176.85,652.44,181.05Z" transform="translate(0 -1)"/><path class="cls-1" d="M691.07,103.87c-7.68,10-8.88,16.62-8.48,21.15l23.54,18.27-4.79,6.18L661,118.11l4.79-6.17,5.85,4.54c-1.45-6.49.75-14.77,6.68-22.54Z" transform="translate(0 -1)"/><path class="cls-1" d="M793.31,76.05l-6.51,4L772,56.08c-3.29-5.34-7.42-6.62-15.81-1.45-7.63,4.69-10.79,10.28-12,15l16.35,26.56L754,100.26l-14.77-24c-3.29-5.33-7.42-6.61-15.81-1.45S712,86.37,711.14,91.38L726.9,117l-6.66,4.1L693.43,77.52l6.65-4.1,3.72,6C705,72.51,709,66.49,716.36,62c7.14-4.4,14.22-4.55,19.9-1.07.82-7.67,5-14.26,13-19.17C759.62,35.32,770,38.13,776,48Z" transform="translate(0 -1)"/><path class="cls-1" d="M791.35,8.05a6,6,0,1,1,7,4.82A6,6,0,0,1,791.35,8.05Zm5,15.22L804,21.85l9.39,50.26-7.6,1.42Z" transform="translate(0 -1)"/><path class="cls-1" d="M861.26,53.92l2.44,14.22C861.89,69.3,857.49,70.69,852,71c-15.77.9-26.09-9.85-27-25.21-.9-15.77,8.13-27.62,24-28.53,6.42-.36,10.15.65,13,1.87L860.74,33.4a23.74,23.74,0,0,0-10.44-1.6c-10.49.59-18.46,3.9-17.91,13.41s8.75,11.9,18.83,11.33A23.24,23.24,0,0,0,861.26,53.92Z" transform="translate(0 -1)"/><path class="cls-1" d="M924.2,59.91,885.86,50.8c.24,7.09,6.82,10.75,16.73,13.1a54.39,54.39,0,0,0,14.81,1.76l-1.74,13c-2.39.52-8.59.22-16.51-1.66l-.08,0c-16.8-4-24-16-20.1-32.38,3.65-15.37,15.44-24.12,30.87-20.38C925.84,28,931.35,41.1,924.2,59.91ZM887.62,43l30.82,7.32c.52-6.41-3.63-10.07-12.27-12.12C897.85,36.24,890.75,36.9,887.62,43Z" transform="translate(0 -1)"/><path class="cls-1" d="M958.05,24.89l7,3.31L936,89.33l-7-3.31Z" transform="translate(0 -1)"/><path class="cls-1" d="M982.69,37.85l6.58,4.06L953.79,99.52l-6.59-4.06Z" transform="translate(0 -1)"/><path class="cls-1" d="M1011.69,120.84l-29-26.68c-3.25,6.3.7,12.7,8.19,19.59a54.24,54.24,0,0,0,12.07,8.78L995.09,133c-2.34-.71-7.6-4-13.6-9.52l-.06,0c-12.7-11.69-13.11-25.68-1.7-38.08,10.69-11.62,25.25-13.5,36.88-2.69C1028.72,93.79,1027.12,107.92,1011.69,120.84ZM988,88.23l23.31,21.44c3.58-5.33,1.75-10.56-4.78-16.57C1000.27,87.32,993.75,84.42,988,88.23Z" transform="translate(0 -1)"/><path class="cls-1" d="M1048.63,150.59c-6.82-10.62-12.61-14-17-15.16l-25.18,15.94-4.18-6.61,43.21-27.34,4.18,6.61-6.26,4c6.59.84,13.64,5.73,18.93,13.94Z" transform="translate(0 -1)"/><path class="cls-1" d="M1068.31,158l3.14,7.07-46.72,20.78-3.14-7.07Zm13.64-8.39a6,6,0,1,1-3,8A6,6,0,0,1,1082,149.63Z" transform="translate(0 -1)"/><path class="cls-1" d="M1089.39,235.75l-50.28,9.31L1038,239l6.25-2c-4.8-2.67-9.52-8.5-11.11-17.07-2.9-15.69,5.57-27.19,21.66-30.17,15.29-2.83,28.14,4.81,31,20.5,1.56,8.41-.85,15.56-4.6,19.9l7-.48Zm-27.64-2.59,2.25-.41c7.15-2.07,9.48-10,7.7-19.64-1.91-10.33-6.19-17.82-15.56-16.09s-10.7,10.18-8.78,20.59C1049.16,227.3,1054.2,234,1061.75,233.16Z" transform="translate(0 -1)"/><path class="cls-1" d="M6.34,190.58l60.21,27.95-1.61,14.9L0,249.35l.94-8.66,54.79-13L4.94,203.61Z" transform="translate(0 -1)"/><path class="cls-1" d="M70.45,148.21l-16,36c7,1.07,11.82-4.72,15.95-14A54,54,0,0,0,74.84,156l12.44,4.1c.07,2.44-1.37,8.48-4.68,15.92l0,.07c-7,15.78-20.14,20.63-35.54,13.78-14.43-6.42-20.86-19.61-14.33-34.08C39.38,140.72,53.28,137.72,70.45,148.21ZM47.11,181.05,60,152.11c-6.2-1.69-10.57,1.71-14.17,9.82C42.33,169.74,41.67,176.85,47.11,181.05Z" transform="translate(0 -1)"/><path class="cls-1" d="M85.73,103.87c-7.67,10-8.87,16.62-8.47,21.15l23.54,18.27L96,149.47l-40.4-31.36,4.8-6.17,5.85,4.54C64.8,110,67,101.71,72.94,93.94Z" transform="translate(0 -1)"/><path class="cls-1" d="M188,76.05l-6.52,4-14.77-24c-3.29-5.34-7.42-6.62-15.81-1.45-7.63,4.69-10.79,10.28-12,15l16.36,26.56-6.59,4.05-14.77-24c-3.29-5.33-7.42-6.61-15.81-1.45s-11.44,11.55-12.28,16.56L121.56,117l-6.65,4.1L88.1,77.52l6.65-4.1,3.72,6c1.17-6.94,5.21-13,12.56-17.49,7.14-4.4,14.21-4.55,19.9-1.07.82-7.67,5-14.26,13-19.17,10.4-6.4,20.73-3.59,26.8,6.25Z" transform="translate(0 -1)"/><path class="cls-1" d="M186,8.05a6,6,0,1,1,7,4.82A6,6,0,0,1,186,8.05Zm5,15.22,7.6-1.42L208,72.11l-7.6,1.42Z" transform="translate(0 -1)"/><path class="cls-1" d="M255.93,53.92l2.44,14.22c-1.81,1.16-6.21,2.55-11.74,2.87-15.77.9-26.09-9.85-27-25.21-.9-15.77,8.12-27.62,24-28.53,6.42-.36,10.15.65,13,1.87L255.41,33.4A23.76,23.76,0,0,0,245,31.8c-10.48.59-18.45,3.9-17.91,13.41s8.76,11.9,18.84,11.33A23.24,23.24,0,0,0,255.93,53.92Z" transform="translate(0 -1)"/><path class="cls-1" d="M318.87,59.91,280.53,50.8c.24,7.09,6.82,10.75,16.72,13.1a54.5,54.5,0,0,0,14.82,1.76l-1.75,13c-2.38.52-8.58.22-16.51-1.66l-.07,0c-16.8-4-24-16-20.1-32.38,3.65-15.37,15.44-24.12,30.86-20.38C320.51,28,326,41.1,318.87,59.91ZM282.29,43l30.82,7.32c.52-6.41-3.64-10.07-12.27-12.12C292.52,36.24,285.42,36.9,282.29,43Z" transform="translate(0 -1)"/><path class="cls-1" d="M352.72,24.89l7,3.31-29,61.13-7-3.31Z" transform="translate(0 -1)"/><path class="cls-1" d="M377.35,37.85l6.59,4.06L348.46,99.52l-6.59-4.06Z" transform="translate(0 -1)"/><path class="cls-1" d="M406.36,120.84l-29-26.68c-3.25,6.3.7,12.7,8.19,19.59a54,54,0,0,0,12.07,8.78L389.75,133c-2.33-.71-7.6-4-13.59-9.52l-.06,0c-12.7-11.69-13.11-25.68-1.7-38.08,10.69-11.62,25.25-13.5,36.88-2.69C423.38,93.79,421.78,107.92,406.36,120.84ZM382.7,88.23,406,109.67c3.58-5.33,1.75-10.56-4.78-16.57C394.94,87.32,388.42,84.42,382.7,88.23Z" transform="translate(0 -1)"/><path class="cls-1" d="M443.3,150.59c-6.82-10.62-12.61-14-17-15.16L401.1,151.37l-4.17-6.61,43.21-27.34,4.17,6.61-6.26,4c6.6.84,13.65,5.73,18.94,13.94Z" transform="translate(0 -1)"/><path class="cls-1" d="M463,158l3.15,7.07L419.4,185.87l-3.15-7.07Zm13.65-8.39a6,6,0,1,1-3.06,8A6,6,0,0,1,476.62,149.63Z" transform="translate(0 -1)"/><path class="cls-1" d="M484.06,235.75l-50.28,9.31L432.65,239l6.26-2c-4.8-2.67-9.52-8.5-11.11-17.07-2.9-15.69,5.57-27.19,21.66-30.17,15.29-2.83,28.13,4.81,31,20.5,1.55,8.41-.85,15.56-4.6,19.9l7-.48Zm-27.64-2.59,2.24-.41c7.15-2.07,9.49-10,7.71-19.64-1.91-10.33-6.19-17.82-15.56-16.09s-10.7,10.18-8.78,20.59C443.83,227.3,448.87,234,456.42,233.16Z" transform="translate(0 -1)"/><path class="cls-1" d="M69.87,358.66l4.3,6.43L31.65,393.5l-4.3-6.44Zm12-10.58a6,6,0,1,1-1.67,8.36A6,6,0,0,1,81.9,348.08Z" transform="translate(0 -1)"/><path class="cls-1" d="M113.31,471.9l-5.76-5,18.53-21.22c4.13-4.72,4.12-9-3.3-15.53-6.74-5.89-13-7.25-17.9-7L84.37,446.62l-5.83-5.09,18.54-21.22c4.12-4.72,4.11-9.05-3.31-15.53S79.36,397.27,74.33,398L54.56,420.59l-5.88-5.14,33.63-38.52,5.89,5.15-4.66,5.33c7-.93,13.93,1.14,20.43,6.81,6.31,5.52,8.56,12.24,6.92,18.69,7.57-1.49,15.09.54,22.15,6.7,9.19,8,9.57,18.74,2,27.45Z" transform="translate(0 -1)"/><path class="cls-1" d="M214.84,458.21l-21-6.94-15.24,46-7.89-2.61,15.25-46-20.94-6.94L169.6,428l49.77,16.5Z" transform="translate(0 -1)"/><path class="cls-1" d="M264.87,486.61l-39.37-1.75c1.57,6.92,8.72,9.27,18.89,9.73a54.18,54.18,0,0,0,14.88-1.06l.72,13.08c-2.24,1-8.39,1.82-16.53,1.46h-.08c-17.24-.77-26.56-11.2-25.81-28,.7-15.78,10.63-26.59,26.49-25.8C260.49,455,268.36,466.8,264.87,486.61Zm-39.09-9.72,31.64,1.4c-.7-6.39-5.46-9.2-14.33-9.6C234.55,468.31,227.7,470.29,225.78,476.89Z" transform="translate(0 -1)"/><path class="cls-1" d="M272.27,437.39l7.65-1.12,9.8,67-7.66,1.12Z" transform="translate(0 -1)"/><path class="cls-1" d="M291.65,433.79l7.48-2,17.27,65.42-7.48,2Z" transform="translate(0 -1)"/><path class="cls-1" d="M381.33,470.74l-7,3.23-11.76-25.6c-2.62-5.69-6.57-7.46-16.26-3s-13.46,10.3-15,15.21l12.58,27.37-7,3.23-28.25-61.48,7-3.23,9.83,21.39c2.08-6.79,6.92-12.24,15.43-16.15,11.91-5.47,21.83-1.43,26.66,9.08Z" transform="translate(0 -1)"/><path class="cls-1" d="M420.35,404.84c10.25,11.69,10.36,26.64-1.88,37.38s-27.05,8.66-37.3-3-10.42-26.71,1.82-37.44S410,393.08,420.35,404.84Zm-5.57,4.88c-6.28-7.16-14.44-4.23-22.4,2.74s-11.92,14.68-5.64,21.85,14.43,4.23,22.39-2.75S421.11,417,414.78,409.72Z" transform="translate(0 -1)"/><path class="cls-1" d="M416.74,369.11l1.92,1.24,11.66-18L440.43,359l-11.67,18,28.47,18.5L453,401.9l-28.47-18.49-3.77,5.8-10.11-6.57,3.77-5.8-2.39-1.55c-12.77-8.3-14.65-20.79,2.21-38.08l11.42,8.29C411.33,360.55,410.87,365.3,416.74,369.11Z" transform="translate(0 -1)"/></svg>