<?xml version="1.0" encoding="UTF-8"?>
<svg width="486px" height="509px" viewBox="0 0 486 509" version="1.1" xmlns="http://www.w3.org/2000/svg" xmlns:xlink="http://www.w3.org/1999/xlink">
    <!-- Generator: Sketch 57.1 (83088) - https://sketch.com -->
    <title>Group</title>
    <desc>Created with Sketch.</desc>
    <g id="Page-1" stroke="none" stroke-width="1" fill="none" fill-rule="evenodd">
        <g id="logo" fill="#312783" fill-rule="nonzero">
            <g id="Group" transform="translate(0.000000, 0.970229)">
                <polygon id="Path" points="6.34 189.609771 66.55 217.559771 64.94 232.459771 0 248.379771 0.94 239.719771 55.73 226.719771 4.94 202.639771"></polygon>
                <path d="M70.45,147.239771 L54.45,183.239771 C61.45,184.309771 66.27,178.519771 70.4,169.239771 C72.5289697,164.730815 74.0231663,159.948713 74.84,155.029771 L87.28,159.129771 C87.35,161.569771 85.91,167.609771 82.6,175.049771 L82.6,175.119771 C75.6,190.899771 62.46,195.749771 47.06,188.899771 C32.63,182.479771 26.2,169.289771 32.73,154.819771 C39.38,139.749771 53.28,136.749771 70.45,147.239771 Z M47.11,180.079771 L60,151.139771 C53.8,149.449771 49.43,152.849771 45.83,160.959771 C42.33,168.769771 41.67,175.879771 47.11,180.079771 Z" id="Shape"></path>
                <path d="M85.73,102.899771 C78.06,112.899771 76.86,119.519771 77.26,124.049771 L100.8,142.319771 L96,148.499771 L55.6,117.139771 L60.4,110.969771 L66.25,115.509771 C64.8,109.029771 67,100.739771 72.94,92.9697715 L85.73,102.899771 Z" id="Path"></path>
                <path d="M188,75.0797715 L181.48,79.0797715 L166.71,55.0797715 C163.42,49.7397715 159.29,48.4597715 150.9,53.6297715 C143.27,58.3197715 140.11,63.9097715 138.9,68.6297715 L155.26,95.1897715 L148.67,99.2397715 L133.9,75.2397715 C130.61,69.9097715 126.48,68.6297715 118.09,73.7897715 C109.7,78.9497715 106.65,85.3397715 105.81,90.3497715 L121.56,116.029771 L114.91,120.129771 L88.1,76.5497715 L94.75,72.4497715 L98.47,78.4497715 C99.64,71.5097715 103.68,65.4497715 111.03,60.9597715 C118.17,56.5597715 125.24,56.4097715 130.93,59.8897715 C131.75,52.2197715 135.93,45.6297715 143.93,40.7197715 C154.33,34.3197715 164.66,37.1297715 170.73,46.9697715 L188,75.0797715 Z" id="Path"></path>
                <path d="M186,7.07977148 C185.404692,3.82253759 187.560571,0.698793134 190.817163,0.0999810017 C194.073754,-0.49883113 197.199817,1.653686 197.802132,4.90963133 C198.404448,8.16557666 196.255295,11.293953 193,11.8997715 C191.432263,12.1915312 189.812871,11.8472021 188.499466,10.9428289 C187.186061,10.0384558 186.286698,8.64844223 186,7.07977148 L186,7.07977148 Z M191,22.2997715 L198.6,20.8797715 L208,71.1397715 L200.4,72.5597715 L191,22.2997715 Z" id="Shape"></path>
                <path d="M255.93,52.9497715 L258.37,67.1697715 C256.56,68.3297715 252.16,69.7197715 246.63,70.0397715 C230.86,70.9397715 220.54,60.1897715 219.63,44.8297715 C218.73,29.0597715 227.75,17.2097715 243.63,16.2997715 C250.05,15.9397715 253.78,16.9497715 256.63,18.1697715 L255.41,32.4297715 C252.10339,31.1243855 248.546001,30.5776206 245,30.8297715 C234.52,31.4197715 226.55,34.7297715 227.09,44.2397715 C227.63,53.7497715 235.85,56.1397715 245.93,55.5697715 C249.41776,55.4582757 252.83564,54.5627911 255.93,52.9497715 L255.93,52.9497715 Z" id="Path"></path>
                <path d="M318.87,58.9397715 L280.53,49.8297715 C280.77,56.9197715 287.35,60.5797715 297.25,62.9297715 C302.085923,64.1932411 307.072666,64.785459 312.07,64.6897715 L310.32,77.6897715 C307.94,78.2097715 301.74,77.9097715 293.81,76.0297715 L293.74,76.0297715 C276.94,72.0297715 269.74,60.0297715 273.64,43.6497715 C277.29,28.2797715 289.08,19.5297715 304.5,23.2697715 C320.51,27.0297715 326,40.1297715 318.87,58.9397715 Z M282.29,42.0297715 L313.11,49.3497715 C313.63,42.9397715 309.47,39.2797715 300.84,37.2297715 C292.52,35.2697715 285.42,35.9297715 282.29,42.0297715 Z" id="Shape"></path>
                <polygon id="Path" points="352.72 23.9197715 359.72 27.2297715 330.72 88.3597715 323.72 85.0497715"></polygon>
                <polygon id="Path" points="377.35 36.8797715 383.94 40.9397715 348.46 98.5497715 341.87 94.4897715"></polygon>
                <path d="M406.36,119.869771 L377.36,93.1897715 C374.11,99.4897715 378.06,105.889771 385.55,112.779771 C389.147522,116.251034 393.209648,119.205919 397.62,121.559771 L389.75,132.029771 C387.42,131.319771 382.15,128.029771 376.16,122.509771 L376.1,122.509771 C363.4,110.819771 362.99,96.8297715 374.4,84.4297715 C385.09,72.8097715 399.65,70.9297715 411.28,81.7397715 C423.38,92.8197715 421.78,106.949771 406.36,119.869771 Z M382.7,87.2597715 L406,108.699771 C409.58,103.369771 407.75,98.1397715 401.22,92.1297715 C394.94,86.3497715 388.42,83.4497715 382.7,87.2597715 Z" id="Shape"></path>
                <path d="M443.3,149.619771 C436.48,138.999771 430.69,135.619771 426.3,134.459771 L401.1,150.399771 L396.93,143.789771 L440.14,116.449771 L444.31,123.059771 L438.05,127.059771 C444.65,127.899771 451.7,132.789771 456.99,140.999771 L443.3,149.619771 Z" id="Path"></path>
                <path d="M463,157.029771 L466.15,164.099771 L419.4,184.899771 L416.25,177.829771 L463,157.029771 Z M476.65,148.639771 C479.674725,147.322979 483.195149,148.69508 484.531012,151.711432 C485.866874,154.727784 484.517025,158.2568 481.509167,159.611679 C478.501309,160.966558 474.963841,159.639016 473.59,156.639771 C472.923642,155.181024 472.869008,153.516221 473.43829,152.016923 C474.007573,150.517625 475.153385,149.308631 476.62,148.659771 L476.65,148.639771 Z" id="Shape"></path>
                <path d="M484.06,234.779771 L433.78,244.089771 L432.65,238.029771 L438.91,236.029771 C434.11,233.359771 429.39,227.529771 427.8,218.959771 C424.9,203.269771 433.37,191.769771 449.46,188.789771 C464.75,185.959771 477.59,193.599771 480.46,209.289771 C482.01,217.699771 479.61,224.849771 475.86,229.189771 L482.86,228.709771 L484.06,234.779771 Z M456.42,232.189771 L458.66,231.779771 C465.81,229.709771 468.15,221.779771 466.37,212.139771 C464.46,201.809771 460.18,194.319771 450.81,196.049771 C441.44,197.779771 440.11,206.229771 442.03,216.639771 C443.83,226.329771 448.87,233.029771 456.42,232.189771 Z" id="Shape"></path>
                <path d="M69.87,357.689771 L74.17,364.119771 L31.65,392.529771 L27.35,386.089771 L69.87,357.689771 Z M81.87,347.109771 C84.6292421,345.288086 88.3422086,346.041928 90.1725522,348.795434 C92.0028958,351.54894 91.2607214,355.264256 88.5129784,357.10324 C85.7652355,358.942224 82.0476063,358.211724 80.2,355.469771 C79.308135,354.138317 78.9859724,352.505409 79.3053158,350.934991 C79.6246592,349.364573 80.5589669,347.987167 81.9,347.109771 L81.87,347.109771 Z" id="Shape"></path>
                <path d="M113.31,470.929771 L107.55,465.929771 L126.08,444.709771 C130.21,439.989771 130.2,435.709771 122.78,429.179771 C116.04,423.289771 109.78,421.929771 104.88,422.179771 L84.37,445.649771 L78.54,440.559771 L97.08,419.339771 C101.2,414.619771 101.19,410.289771 93.77,403.809771 C86.35,397.329771 79.36,396.299771 74.33,397.029771 L54.56,419.619771 L48.68,414.479771 L82.31,375.959771 L88.2,381.109771 L83.54,386.439771 C90.54,385.509771 97.47,387.579771 103.97,393.249771 C110.28,398.769771 112.53,405.489771 110.89,411.939771 C118.46,410.449771 125.98,412.479771 133.04,418.639771 C142.23,426.639771 142.61,437.379771 135.04,446.089771 L113.31,470.929771 Z" id="Path"></path>
                <polygon id="Path" points="214.84 457.239771 193.84 450.299771 178.6 496.299771 170.71 493.689771 185.96 447.689771 165.02 440.749771 169.6 427.029771 219.37 443.529771"></polygon>
                <path d="M264.87,485.639771 L225.5,483.889771 C227.07,490.809771 234.22,493.159771 244.39,493.619771 C249.375149,493.954228 254.382602,493.597514 259.27,492.559771 L259.99,505.639771 C257.75,506.639771 251.6,507.459771 243.46,507.099771 L243.38,507.099771 C226.14,506.329771 216.82,495.899771 217.57,479.099771 C218.27,463.319771 228.2,452.509771 244.06,453.299771 C260.49,454.029771 268.36,465.829771 264.87,485.639771 Z M225.78,475.919771 L257.42,477.319771 C256.72,470.929771 251.96,468.119771 243.09,467.719771 C234.55,467.339771 227.7,469.319771 225.78,475.919771 Z" id="Shape"></path>
                <polygon id="Path" points="272.27 436.419771 279.92 435.299771 289.72 502.299771 282.06 503.419771"></polygon>
                <polygon id="Path" points="291.65 432.819771 299.13 430.819771 316.4 496.239771 308.92 498.239771"></polygon>
                <path d="M381.33,469.769771 L374.33,472.999771 L362.57,447.399771 C359.95,441.709771 356,439.939771 346.31,444.399771 C336.62,448.859771 332.85,454.699771 331.31,459.609771 L343.89,486.979771 L336.89,490.209771 L308.64,428.729771 L315.64,425.499771 L325.47,446.889771 C327.55,440.099771 332.39,434.649771 340.9,430.739771 C352.81,425.269771 362.73,429.309771 367.56,439.819771 L381.33,469.769771 Z" id="Path"></path>
                <path d="M420.35,403.869771 C430.6,415.559771 430.71,430.509771 418.47,441.249771 C406.23,451.989771 391.42,449.909771 381.17,438.249771 C370.92,426.589771 370.75,411.539771 382.99,400.809771 C395.23,390.079771 410,392.109771 420.35,403.869771 Z M414.78,408.749771 C408.5,401.589771 400.34,404.519771 392.38,411.489771 C384.42,418.459771 380.46,426.169771 386.74,433.339771 C393.02,440.509771 401.17,437.569771 409.13,430.589771 C417.09,423.609771 421.11,416.029771 414.78,408.749771 L414.78,408.749771 Z" id="Shape"></path>
                <path d="M416.74,368.139771 L418.66,369.379771 L430.32,351.379771 L440.43,358.029771 L428.76,376.029771 L457.23,394.529771 L453,400.929771 L424.53,382.439771 L420.76,388.239771 L410.65,381.669771 L414.42,375.869771 L412.03,374.319771 C399.26,366.019771 397.38,353.529771 414.24,336.239771 L425.66,344.529771 C411.33,359.579771 410.87,364.329771 416.74,368.139771 Z" id="Path"></path>
            </g>
        </g>
    </g>
</svg>