<svg xmlns="http://www.w3.org/2000/svg" viewBox="0 0 486.05 382.16"><defs><style>.cls-1{fill:none;stroke:#e94e1b;stroke-width:0.5px;}.cls-1,.cls-2,.cls-3{stroke-miterlimit:10;}.cls-2{fill:#fff;stroke:#e95c0c;stroke-width:5px;}.cls-3{fill:#e94e1b;stroke:#ea5b0c;stroke-linecap:round;}</style></defs><title>GABI_PRESSE_4</title><g id="Ebene_2" data-name="Ebene 2"><line class="cls-1" x1="1.68" y1="155.63" y2="155.63"/></g><g id="Ebene_1" data-name="Ebene 1"><path class="cls-2" d="M79.52,113.76v252c0,19.28,88.27,29.36,157.43,29.64C308,395.68,398,382.62,398,365.74v-331" transform="translate(85.51 -15.73)"/><path class="cls-3" d="M271.2,1.38" transform="translate(85.51 -15.73)"/><path class="cls-3" d="M361.23,16.27l.11,15.27L231,41.4l-.11-15.27Z" transform="translate(85.51 -15.73)"/><path class="cls-3" d="M361.51,56l.11,15.27L231.27,81.09l-.11-15.27Z" transform="translate(85.51 -15.73)"/><path class="cls-3" d="M272.52,189.54,272,111.77c-13.15,4.69-17,19.29-16.83,39.38.08,11.41,1.08,20.49,3.5,29l-25.08,4.47c-2.07-4.18-4.35-16.07-4.46-32.14v-.16c-.24-34.06,18.92-54.8,51.39-57.26,30.43-2.3,52.21,14.7,52.27,46.05C333,173.55,311,191.78,272.52,189.54Zm14.83-79.09.44,62.5c12.22-2.85,17.17-12.87,17-30.39C304.72,125.69,300.23,112.69,287.35,110.45Z" transform="translate(85.51 -15.73)"/><path class="cls-3" d="M262,281.18c-23.06,1.74-32.12-14.13-32.29-38.08-.09-13.82,1.7-25.85,4.16-33.91l27.31,1.15a88.47,88.47,0,0,0-5.73,32.75c.08,11.56.64,23.42,8.48,22.83,7.53-.57,9.64-12.79,11.28-25.45,2.53-18.84,8.55-33.77,26.27-35.11,23.84-1.8,31.8,14.47,32,36.81.12,17.35-2.49,25.43-3.24,30.63l-26.05-.92c1.21-6,3.65-15.71,3.57-27.76-.09-12.54-.33-24.74-7.08-24.23-7.84.6-9.93,15.22-11.59,26C286.08,265.21,280.85,279.75,262,281.18Z" transform="translate(85.51 -15.73)"/></g></svg>