<svg id="Ebene_1" data-name="Ebene 1" xmlns="http://www.w3.org/2000/svg" viewBox="0 0 171.04 162.91"><defs><style>.cls-1,.cls-2{fill:#fff;}.cls-2{stroke:#312783;stroke-linejoin:round;}</style></defs><title>toertli1</title><polygon class="cls-1" points="16.82 143.83 21.17 149.5 51.48 156.67 80.72 159.33 148.33 151.58 164.5 118.61 167.33 104.36 161.33 94.9 150.17 81.47 132.15 71.76 133.85 67.82 129.96 64.41 123.45 63.24 47.83 57 44.04 59.78 39.66 62.12 25.5 74.88 26.24 78.08 26.92 82.89 24.06 86.21 23.07 84.58 18.04 86.68 10.5 94.9 10.5 100 9.67 102.71 6.84 108.87 4.33 111.6 5 120.13 16.82 143.83"/><path class="cls-2" d="M26.16,71.28A45.89,45.89,0,0,1,27.22,93c-.66,3.3-2.86,7.53-.19,10.46a9,9,0,0,0,4.34,2.23,12.33,12.33,0,0,0,6.15.23c3.38-.82,5.92-3.65,8.92-5.29a41.41,41.41,0,0,1,9.4-3.51c3.31-.87,6.71-1.42,9.88-2.73a20.59,20.59,0,0,0,4.61-2.67,13.64,13.64,0,0,1,4.2-2.33c6.23-1.86,14-.25,18.32,4.79a2.5,2.5,0,0,0,3.53,0,2.54,2.54,0,0,0,0-3.53c-4.12-4.84-10.66-7-16.88-6.93a19.36,19.36,0,0,0-9.92,2.43c-1.36.83-2.52,1.92-3.9,2.73a19.12,19.12,0,0,1-4.51,1.79c-6.7,1.87-13.54,3-19.44,7-1.3.87-2.47,1.91-3.81,2.72a6.12,6.12,0,0,1-4.79.62,10.77,10.77,0,0,1-1.83-.57c-.67-.29-.66-.16-.57-.83.2-1.61.89-3.21,1.22-4.81A51.38,51.38,0,0,0,31,70c-.9-3.08-5.72-1.77-4.82,1.33Z" transform="translate(0.5 0.5)"/><path class="cls-2" d="M38.83,84.41,36.9,67.24a2.57,2.57,0,0,0-2.5-2.5,2.51,2.51,0,0,0-2.5,2.5h0l1.82,16.19c.28,2.45.62,4.9.8,7.36.15,2,.15,4.08-1,5.84a2.49,2.49,0,0,0,.65,3.23,2.54,2.54,0,0,0,3.28-.2c5.43-4.51,12-7.46,18.58-9.83,3.49-1.25,7-2.39,10.57-3.48a49.33,49.33,0,0,1,11.57-2.41,37.37,37.37,0,0,1,13,1.52c3.09.92,4.41-3.91,1.33-4.82a44.51,44.51,0,0,0-25.21.27A139.26,139.26,0,0,0,45.07,89a54.85,54.85,0,0,0-11.16,7.14" transform="translate(0.5 0.5)"/><path class="cls-2" d="M37.84,99.16" transform="translate(0.5 0.5)"/><path class="cls-2" d="M46.8,108.8A104.88,104.88,0,0,1,77.74,98.09c5.1-.9,10.51-1.29,15.48.47a28.6,28.6,0,0,1,6.71,3.77c2.44,1.7,4.85,3.44,7.27,5.17l16.54,11.77a2.53,2.53,0,0,0,3.42-.9,2.55,2.55,0,0,0-.9-3.42L110.93,104q-3.78-2.7-7.57-5.39a39.43,39.43,0,0,0-7.18-4.27C90.73,92,84.82,92.05,79,92.85a98.3,98.3,0,0,0-16.67,3.94,112.06,112.06,0,0,0-18.09,7.69c-2.84,1.52-.32,5.83,2.52,4.32Z" transform="translate(0.5 0.5)"/><path class="cls-2" d="M52.52,113.64a23.91,23.91,0,0,1,10.53-5.85,98.12,98.12,0,0,1,13.58-3,24.09,24.09,0,0,1,13.85,1.68,140.65,140.65,0,0,1,13.22,7q7.35,4.33,14.28,9.29a2.51,2.51,0,0,0,3.42-.9,2.55,2.55,0,0,0-.89-3.42A164.84,164.84,0,0,0,93,102.18a28.65,28.65,0,0,0-15.62-2.47,98.57,98.57,0,0,0-14.71,3c-5.05,1.43-10,3.6-13.68,7.42-2.25,2.31,1.29,5.84,3.53,3.53Z" transform="translate(0.5 0.5)"/><path class="cls-2" d="M103.82,96.62a104.31,104.31,0,0,1,28.55-4.42c4.53,0,9.17-.2,12.94,2.66a20,20,0,0,1,6.44,8.78,21.44,21.44,0,0,1,.91,12.57c-.74,3.13,4.08,4.46,4.83,1.33a26.56,26.56,0,0,0-7.13-24.9,19.37,19.37,0,0,0-6.09-4.07,22.38,22.38,0,0,0-7.87-1.34,103.86,103.86,0,0,0-15.86.79,111.36,111.36,0,0,0-18.05,3.78c-3.08.92-1.77,5.75,1.33,4.82Z" transform="translate(0.5 0.5)"/><path class="cls-2" d="M108.94,102.8c4.77-.88,9.54-1.92,14.34-2.62,4.62-.67,8.9.19,13.33,1.47a22.24,22.24,0,0,1,5.1,1.86c1.61.94,2.14,2.29,2.55,4a50.65,50.65,0,0,1,1.12,13.78c-.16,3.22,4.84,3.21,5,0a58,58,0,0,0-.77-12.41c-.64-3.81-1.63-7.34-5.06-9.54-3-1.9-6.89-2.73-10.29-3.53a31.73,31.73,0,0,0-12.54-.45c-4.72.73-9.41,1.71-14.11,2.58a2.51,2.51,0,0,0-1.74,3.07,2.54,2.54,0,0,0,3.07,1.75Z" transform="translate(0.5 0.5)"/><path class="cls-2" d="M106.6,100.49A158.17,158.17,0,0,1,132,97.8q3.17-.09,6.32,0c1.06,0,2.11,0,3.16.08a15.39,15.39,0,0,1,3,.16c1.15.27,1.52,2.5,1.86,3.47.68,1.92,1.32,3.85,1.82,5.83,1,4.16,1.34,8.38-.35,12.41a2.53,2.53,0,0,0,1.75,3.08,2.58,2.58,0,0,0,3.08-1.75c1.74-4.16,1.64-8.74.78-13.1a50.34,50.34,0,0,0-1.81-6.52,24.57,24.57,0,0,0-2.33-5.77c-1.46-2.16-3.59-2.63-6.06-2.74s-4.86-.17-7.29-.16q-7.17,0-14.32.64c-5.47.5-10.92,1.26-16.31,2.28a2.53,2.53,0,0,0-1.75,3.07,2.56,2.56,0,0,0,3.08,1.75Z" transform="translate(0.5 0.5)"/><path class="cls-2" d="M145.41,123.36c.35-3.52.2-7-2-9.9s-5.18-5.4-7.78-8a16.78,16.78,0,0,0-3.74-3.09,12.81,12.81,0,0,0-5.13-1.24c-3.93-.27-7.89-.25-11.82-.16-3.21.07-3.22,5.07,0,5,3.41-.08,6.82-.06,10.22.08a12.17,12.17,0,0,1,3.94.52,10,10,0,0,1,3,2.42c2.25,2.25,4.62,4.42,6.77,6.77,2,2.2,1.85,4.77,1.57,7.58a2.5,2.5,0,0,0,5,0Z" transform="translate(0.5 0.5)"/><path class="cls-2" d="M110.88,106.17c6.06-2.06,12.51-1.69,18.77-.84,4.26.58,12.54,1.48,12.28,7.46-.13,3.22,4.87,3.21,5,0a10.54,10.54,0,0,0-4.64-8.75c-2.87-2.13-6.51-2.83-10-3.34-7.55-1.11-15.4-1.85-22.77.64-3,1-1.73,5.86,1.33,4.83Z" transform="translate(0.5 0.5)"/><path class="cls-2" d="M117.82,110.61c4.09.15,8.41.55,12,2.69,2.94,1.76,5.09,4.76,5,8s4.94,3.22,5,0c.1-5-3-9.38-7-12-4.4-2.88-9.89-3.5-15-3.69a2.5,2.5,0,0,0,0,5Z" transform="translate(0.5 0.5)"/><path class="cls-2" d="M127.06,117.19c-1.16.6-.2,0-.52,0l0,0c-.1-.09,0,0,.23.13,0,0-.09,0-.09,0a1.79,1.79,0,0,1-.91,1c-1.72,1-4.32.76-6.24.9-2.4.18-4.8.43-7.2.54a1.75,1.75,0,0,1-1.75-.72c-.7-.75-1.32-1.58-2-2.33a19.43,19.43,0,0,0-11.13-6.38A23.26,23.26,0,0,0,84,112.67c-4.71,2.25-8.72,5.76-12.63,9.16a2.53,2.53,0,0,0,0,3.54,2.56,2.56,0,0,0,3.54,0c6.66-5.79,16.54-14,25.8-8.63a20.2,20.2,0,0,1,5.21,4.59c1.64,1.94,3.24,3.46,6,3.47s5.74-.41,8.58-.62c2.55-.19,5.33-.18,7.64-1.43s4.22-4.27,3.27-7.06a4.89,4.89,0,0,0-6.85-2.81c-2.86,1.47-.34,5.78,2.52,4.31Z" transform="translate(0.5 0.5)"/><path class="cls-2" d="M78.45,128.17c3.06-3.49,6.92-6.84,11.73-7.34s9.3,2.37,12.46,5.73c2.22,2.35,5.75-1.19,3.54-3.54-4-4.27-9.94-7.74-16-7.19s-11.27,4.25-15.26,8.8a2.56,2.56,0,0,0,0,3.54,2.51,2.51,0,0,0,3.53,0Z" transform="translate(0.5 0.5)"/><path class="cls-2" d="M98.52,123.36c-2.94-.25-5.87-.54-8.81-.74s-5.77,0-8.25,1.51A2.5,2.5,0,0,0,84,128.45a6.88,6.88,0,0,1,2.67-.85,23.93,23.93,0,0,1,3.59.06c2.76.21,5.52.47,8.28.7a2.52,2.52,0,0,0,2.5-2.5,2.57,2.57,0,0,0-2.5-2.5Z" transform="translate(0.5 0.5)"/><path class="cls-2" d="M12.78,98.23a18.09,18.09,0,0,0,4.47,17.49c4.09,4.1,11.41,6.92,17,4.4,3.12-1.41,5-4.94,7-7.57a39.26,39.26,0,0,1,6.3-6.77A41.45,41.45,0,0,1,63.61,98c7.77-2,15.83-2.28,23.81-2.18,3.21,0,3.22-5,0-5-12.82-.17-26.19.83-37.55,7.33a43.64,43.64,0,0,0-13.25,12.24c-1.5,2-3,5.25-5.78,5.58a12.08,12.08,0,0,1-6.92-1.47A13,13,0,0,1,17.6,99.56c.86-3.11-4-4.43-4.82-1.33Z" transform="translate(0.5 0.5)"/><path class="cls-2" d="M91.78,106.67c-4.42-.3-9-.44-13.29.65a17.3,17.3,0,0,0-6,2.75,23,23,0,0,0-4.87,5.4c-4.18,5.71-13.11,7.11-18.64,2.49-2-1.68-3.37-4-5.79-5.23a6.53,6.53,0,0,0-7.56.9c-2.29,2.26,1.24,5.8,3.53,3.53.92-.9,2.6.52,3.39,1.33a29,29,0,0,0,4.7,4.37A18.54,18.54,0,0,0,69.3,121c1.64-1.5,2.71-3.45,4.13-5.13a11,11,0,0,1,4.51-3.19c4.39-1.63,9.24-1.36,13.84-1a2.52,2.52,0,0,0,2.5-2.5,2.56,2.56,0,0,0-2.5-2.5Z" transform="translate(0.5 0.5)"/><path class="cls-2" d="M40.6,112.7a42.74,42.74,0,0,1,10.21,4.2c1.66,1,3.21,2.23,5,2.82a6.17,6.17,0,0,0,5.23-.8c2.62-1.74,4-4.77,6.37-6.84a19.49,19.49,0,0,1,7.6-4.11,19.09,19.09,0,0,1,10-.22c3.12.78,4.45-4,1.33-4.82a24.82,24.82,0,0,0-18.88,2.95,25.39,25.39,0,0,0-7.08,6.66c-.63.83-1.5,2.23-2.56,2.44S55,113.6,54.1,113a47.64,47.64,0,0,0-12.17-5.15c-3.11-.84-4.44,4-1.33,4.82Z" transform="translate(0.5 0.5)"/><path class="cls-2" d="M43.79,88.85,43.5,75.3c0-2-.19-4,0-5.93.07-1.05.26-2.42,1.17-3,2.67-1.76.17-6.09-2.53-4.31-3.86,2.54-3.72,7.2-3.64,11.33l.34,15.48c.07,3.21,5.07,3.22,5,0Z" transform="translate(0.5 0.5)"/><path class="cls-2" d="M43.54,72c3.54-.07,6.81,1.52,9.86,3.15a57.26,57.26,0,0,1,9,5.93,2.57,2.57,0,0,0,3.54,0,2.51,2.51,0,0,0,0-3.53A64.27,64.27,0,0,0,55.6,70.65c-3.73-2-7.76-3.75-12.06-3.66-3.22.07-3.23,5.07,0,5Z" transform="translate(0.5 0.5)"/><path class="cls-2" d="M43.14,76.15A32.18,32.18,0,0,1,47,77.31l.9.35c.39.15-.3-.13.08,0l.45.2c.63.28,1.25.59,1.85.91a33.24,33.24,0,0,1,3.33,2l.79.57c.34.25,0,0,.17.12l.38.31c.54.43,1.06.89,1.56,1.35A2.5,2.5,0,0,0,60,79.65a34.92,34.92,0,0,0-15.57-8.32,2.5,2.5,0,0,0-1.33,4.82Z" transform="translate(0.5 0.5)"/><path class="cls-2" d="M42.92,79.82A61.18,61.18,0,0,0,50.76,86a2.53,2.53,0,0,0,3.42-.9,2.57,2.57,0,0,0-.9-3.42c-1.09-.73-2.16-1.5-3.2-2.3l.51.39q-2.16-1.66-4.14-3.53a2.5,2.5,0,0,0-3.53,3.54Z" transform="translate(0.5 0.5)"/><path class="cls-2" d="M43.46,86.57a2.13,2.13,0,0,1,.33.11l-.6-.25a2.15,2.15,0,0,1,.49.28l-.51-.39a2.16,2.16,0,0,1,.4.4l-.39-.51a1.58,1.58,0,0,1,.24.39,2,2,0,0,0,.65.7,1.89,1.89,0,0,0,.85.45,1.85,1.85,0,0,0,1,0,1.79,1.79,0,0,0,.93-.29l.51-.4A2.5,2.5,0,0,0,48,86l.09-.66a2.47,2.47,0,0,0-.34-1.27,5.74,5.74,0,0,0-.64-.91,3,3,0,0,0-.36-.35,6.44,6.44,0,0,0-.9-.65c-.26-.13-.53-.23-.8-.34l-.25-.07a1.89,1.89,0,0,0-1,0,2.26,2.26,0,0,0-1.63.94,1.83,1.83,0,0,0-.44.85l-.09.67A2.43,2.43,0,0,0,42,85.42l.39.5a2.52,2.52,0,0,0,1.1.65Z" transform="translate(0.5 0.5)"/><path class="cls-2" d="M54.18,68.62a113.23,113.23,0,0,0,13.37,7.32,27.45,27.45,0,0,0,7.55,2.49c2.39.34,4.8.35,7.19.69a41.32,41.32,0,0,1,13.84,4.56c1.64.88,3.7,1.87,4.8,3.46a2,2,0,0,1,.42,1.46,1.59,1.59,0,0,1-.34.76c.12-.17-.2,0,0,0a2,2,0,0,1-.43-.2,3.91,3.91,0,0,1-.66-.77c-.62-.86-1-1.85-1.65-2.71-1.57-2.21-4.19-4.16-7-3.11a2.57,2.57,0,0,0-1.74,3.08,2.51,2.51,0,0,0,3.07,1.74c1.27-.47,2.53,2.81,3.12,3.66,1.47,2.08,3.62,3.76,6.31,3.19a5.73,5.73,0,0,0,4.23-4.62,7.47,7.47,0,0,0-2.43-6.78,26.06,26.06,0,0,0-6.53-4.21A46,46,0,0,0,81.63,74c-2.72-.31-5.46-.25-8.1-1a50.64,50.64,0,0,1-8.43-3.81c-2.87-1.5-5.67-3.13-8.4-4.86s-5.24,2.59-2.52,4.31Z" transform="translate(0.5 0.5)"/><path class="cls-2" d="M56.78,64.12a84.3,84.3,0,0,0,13.28,6.53,124.11,124.11,0,0,0,14,4.2c7.53,2,16.91,5,19.52,13.28,1,3.05,5.79,1.75,4.82-1.33-2.15-6.82-8-11.36-14.36-14-7.37-3.07-15.4-4.12-22.84-7a77.54,77.54,0,0,1-11.88-6c-2.76-1.67-5.28,2.65-2.52,4.32Z" transform="translate(0.5 0.5)"/><path class="cls-2" d="M113.59,88.46a32.53,32.53,0,0,0-11.83-18.72,31.57,31.57,0,0,0-10.35-5.42C86.94,63,82.23,62.65,77.73,61.4a59.6,59.6,0,0,1-14.09-6.19c-2.79-1.62-5.31,2.7-2.52,4.32a70.18,70.18,0,0,0,12.09,5.69c4.31,1.51,8.76,2.12,13.22,3A28.12,28.12,0,0,1,104,79.1a27.83,27.83,0,0,1,4.78,10.69,2.52,2.52,0,0,0,3.07,1.75,2.56,2.56,0,0,0,1.75-3.08Z" transform="translate(0.5 0.5)"/><path class="cls-2" d="M104.68,75.43l11.24-.49c3.44-.15,7.2-.72,10.53.39,5,1.67,8,7,9.16,11.83.76,3.12,5.59,1.8,4.82-1.33-1.54-6.24-5.42-12.34-11.53-14.89-3.67-1.53-7.62-1.23-11.51-1.06l-12.71.55c-3.2.14-3.22,5.14,0,5Z" transform="translate(0.5 0.5)"/><path class="cls-2" d="M109.94,79.66l8,0c2.53,0,5.11-.15,7.64,0a2.83,2.83,0,0,1,1,.16c.2.09.37.37.28.2.07.15.17.29.24.44-.15-.32.06.17.08.24.11.38.22.76.32,1.15.52,2,1.22,3.76,3,4.92,2.71,1.75,5.22-2.57,2.52-4.32.36.24-.17-.19,0,0s-.18-.29-.21-.34c-.2-.37,0,0-.08-.21s-.14-.41-.2-.62a22.16,22.16,0,0,0-.7-2.41,6.27,6.27,0,0,0-5.53-4.17,69.88,69.88,0,0,0-7.66-.05l-8.59,0c-3.22,0-3.22,5,0,5Z" transform="translate(0.5 0.5)"/><path class="cls-2" d="M128,86c.11-1.85-1.47-3.1-3.1-3.52-1.34-.34-2.7-.6-4-.89l-8.2-1.81a2.5,2.5,0,0,0-1.33,4.82l6.9,1.52,3.38.75,1.7.37s.55.07.6.16c-.31-.15-.34-.15-.11,0A1.75,1.75,0,0,1,123,86a2.52,2.52,0,0,0,2.5,2.5A2.55,2.55,0,0,0,128,86Z" transform="translate(0.5 0.5)"/><path class="cls-2" d="M111.64,87.37a16.85,16.85,0,0,1,2.27.77l-.6-.26a16,16,0,0,1,3,1.66,2.48,2.48,0,0,0,3.42-.89,2.51,2.51,0,0,0,.25-1.93l-.25-.6a2.53,2.53,0,0,0-.89-.89A17.77,17.77,0,0,0,113,82.55a2.62,2.62,0,0,0-1.92.25,2.54,2.54,0,0,0-1.15,1.5,2.5,2.5,0,0,0,.25,1.93,2.56,2.56,0,0,0,1.5,1.14Z" transform="translate(0.5 0.5)"/><path class="cls-2" d="M125.85,84a18.26,18.26,0,0,1,7.72-1.81,48.11,48.11,0,0,1,8.65.36c5,.69,10.23,2.69,13,7.22,1.66,2.75,6,.24,4.32-2.53-3.42-5.68-9.68-8.6-16.06-9.53-6.58-1-14.06-1.19-20.11,2-2.86,1.49-.33,5.8,2.52,4.32Z" transform="translate(0.5 0.5)"/><path class="cls-2" d="M162.32,115.51c1.11-4.54,2.23-9.08,3.33-13.62.6-2.45.67-4.6-1.16-6.55A20.48,20.48,0,0,0,159.94,92a18.14,18.14,0,0,1-4.2-3.07c-1.47-1.6-2.6-3.24-4.43-4.49a14,14,0,0,0-11.26-1.89c-3.11.79-1.79,5.62,1.33,4.82a9,9,0,0,1,7.79,1.68c1.35,1.11,2.23,2.65,3.47,3.87a21.65,21.65,0,0,0,4.11,3,23.2,23.2,0,0,1,3.68,2.43,3.18,3.18,0,0,1,.67.7c.11.19.12.19,0,0a.86.86,0,0,1,0,.39c-.28,1-.48,2-.72,3l-2.88,11.74c-.76,3.12,4.06,4.46,4.83,1.33Z" transform="translate(0.5 0.5)"/><path class="cls-2" d="M146.51,94.6a8.84,8.84,0,0,1,1.26,0c.07,0,.65.07.29,0s.31.07.38.08a10.12,10.12,0,0,1,1.11.32l.59.22c-.33-.13-.12,0,.09.05a17,17,0,0,1,2.15,1.23c.3.2.6.4.89.62s.35.25.52.38c.57.43-.38-.31.17.14a17.57,17.57,0,0,1,1.65,1.46l.4.44c.31.35-.12-.21,0,0s.38.59.55.9c.27.52-.12-.46,0,.1l.14.55c-.07,0,0-.56,0,0,0,.24,0,.43,0,.08a4.61,4.61,0,0,1-.16.64c0,.06-.28.72-.06.24-.19.4-.4.8-.6,1.2a2.5,2.5,0,1,0,4.31,2.52c1.11-2.1,2-4.37,1.16-6.74a10.87,10.87,0,0,0-3.58-4.73c-3.17-2.59-7-5.12-11.3-4.74a2.5,2.5,0,0,0,0,5Z" transform="translate(0.5 0.5)"/><path class="cls-2" d="M35.41,104.64a31.43,31.43,0,0,1-6.3,3.78c-.46.2-1,.41-1.47.58a5.73,5.73,0,0,1-.9.25c.14,0,.05,0,.2,0a7.51,7.51,0,0,1-2.28-1.93A5,5,0,0,1,23.24,105a38.68,38.68,0,0,1-.69-3.87L21.19,92.6a2.52,2.52,0,0,0-3.07-1.75,2.57,2.57,0,0,0-1.75,3.08l1.56,9.81a15.82,15.82,0,0,0,1.16,4.39,11.81,11.81,0,0,0,2.67,3.37,9.33,9.33,0,0,0,3.78,2.55,7.2,7.2,0,0,0,4.62-.69A32.8,32.8,0,0,0,37.93,109a2.58,2.58,0,0,0,.9-3.42,2.52,2.52,0,0,0-3.42-.89Z" transform="translate(0.5 0.5)"/><path class="cls-2" d="M10.8,114.71c-2.08.36-5-.86-4.8-3.36.13-1.82,2.26-2.6,3.66-2.11a2.53,2.53,0,0,0,3.17-2.41l-.16-7.47c0-1-.34-2.49,0-3.43.21-.6,1-1,1.51-1.29a13.21,13.21,0,0,1,5.63-1.58,16,16,0,0,1,3.09,0,3.84,3.84,0,0,1,.89.21.34.34,0,0,1-.15-.2c.92,3.07,5.75,1.76,4.82-1.33S24.51,88,21.73,88a21.29,21.29,0,0,0-9,1.76c-2.87,1.3-5.1,3.41-5.16,6.72s.14,6.91.21,10.36L11,104.42c-7.24-2.5-9.89,3-10,6.93A8.22,8.22,0,0,0,4.35,118a9.84,9.84,0,0,0,7.78,1.57,2.52,2.52,0,0,0,1.75-3.07,2.56,2.56,0,0,0-3.08-1.75Z" transform="translate(0.5 0.5)"/><path class="cls-2" d="M11.79,112.09c.44.38.43-1.09.65-1.64l1.29-3.26a32.59,32.59,0,0,1,2.35-5.38c2.08-3.32,6.9-2.5,10.15-2.07a2.52,2.52,0,0,0,2.5-2.5,2.56,2.56,0,0,0-2.5-2.5h0c-4.25-.55-8.76-.75-12.3,2.07a11.31,11.31,0,0,0-3.22,4.58c-.89,2.08-1.69,4.2-2.53,6.3L7,110.76c-.46,1.16-1,2.33-.28,3.54,1,1.69,3.66,2.08,5.38,2.55a13.13,13.13,0,0,1,4.72,2.26,19.53,19.53,0,0,0,5,3.11,2.51,2.51,0,0,0,3.07-1.74,2.56,2.56,0,0,0-1.75-3.08c-2.16-.81-3.74-2.8-5.76-3.88a18,18,0,0,0-3.8-1.44c-.62-.17-1.19.19-1.8,0" transform="translate(0.5 0.5)"/><path class="cls-2" d="M18,90.19a35.76,35.76,0,0,1,3-2.08c.49-.3,1-.55,1.5-.81.28-.14-.5.19-.07,0l.45-.17a8.42,8.42,0,0,1,.86-.24c.11,0,.24,0,.35-.08-.54.2-.53.06-.21,0a2.8,2.8,0,0,1,.29,0c.49,0-.26,0-.26,0s.9.29.36.06-.11,0,0,0,.12.07-.08-.08-.23-.18-.11-.06l-.26-.36c.08.15.07.11,0-.13s-.11-.28-.05-.11l-.06-.47s0,.67,0,.73A3.08,3.08,0,0,0,25,89.25a2.5,2.5,0,0,0,2.53-4.32,2,2,0,0,1,1,1.63v-.12c0-.12,0-.25,0-.38a3.53,3.53,0,0,0-.11-1.21,3.91,3.91,0,0,0-1.67-2.2A5.74,5.74,0,0,0,22.61,82c-2.71.52-5,2.21-7.18,3.85a2.75,2.75,0,0,0-1.15,1.49,2.6,2.6,0,0,0,.25,1.93c.66,1,2.31,1.74,3.42.89Z" transform="translate(0.5 0.5)"/><path class="cls-2" d="M23.11,89.15a37.81,37.81,0,0,1,.11,5.32c-.11,1.87-.42,3.44-.59,5.3-.28,3.18.72,7,3.91,8.45a2.58,2.58,0,0,0,3.42-.89,2.51,2.51,0,0,0-.89-3.42c-.11,0-.84-.51-.49-.22a3.31,3.31,0,0,1-.49-.5c.27.35-.2-.42-.25-.5.2.4-.06-.21-.09-.31a4,4,0,0,1-.18-1.52,18.47,18.47,0,0,1,.16-2,42.84,42.84,0,0,0,.38-9.73,2.56,2.56,0,0,0-2.5-2.5,2.53,2.53,0,0,0-2.5,2.5Z" transform="translate(0.5 0.5)"/><path class="cls-2" d="M28.82,79.2a11.8,11.8,0,0,0-1.11-3.7c.07.19-.14-.48-.14-.48.08.34,0-.45-.05,0a1.36,1.36,0,0,1,.4-.9A7.56,7.56,0,0,1,30,72.52a20,20,0,0,0,3.25-2.24c1.58-1.42,2.84-3.31,4.56-4.39a10.17,10.17,0,0,1,5.73-1.61c3.21,0,3.22-5,0-5A15.09,15.09,0,0,0,32.34,64c-.88.91-1.68,1.91-2.63,2.76a22,22,0,0,1-3.05,2,9.87,9.87,0,0,0-3.13,3,6,6,0,0,0-.84,4.41,9.77,9.77,0,0,0,.71,2c0-.07.33.77.21.46q.11.27.18.54c.08.31.09.37,0,.17a2.56,2.56,0,0,0,2.5,2.5,2.51,2.51,0,0,0,2.5-2.5Z" transform="translate(0.5 0.5)"/><path class="cls-2" d="M42.66,63.15A10,10,0,0,0,36.55,66c-1.55,1.37-3,2.84-4.57,4.2a15.4,15.4,0,0,0-5.56,12.21,2.5,2.5,0,0,0,5,0,9.62,9.62,0,0,1,.85-4.62,11.94,11.94,0,0,1,3.25-4c1.33-1.17,2.62-2.37,3.9-3.59.31-.3.63-.59,1-.86.09-.08.45-.35.19-.16.16-.12.33-.24.51-.35s.35-.2.53-.31c.36-.22-.06,0,.17-.09l.58-.17c.49-.16-.27,0,.3,0a2.55,2.55,0,0,0,2.5-2.5,2.53,2.53,0,0,0-2.5-2.5Z" transform="translate(0.5 0.5)"/><path class="cls-2" d="M122,73.3c2.33-.14,4.66-.36,7-.61s4.43-.3,6.46-1.21A4.76,4.76,0,0,0,138.2,66c-.59-2.27-2.75-3.57-4.8-4.32a25.65,25.65,0,0,0-8-1.48,2.52,2.52,0,0,0-2.5,2.5,2.55,2.55,0,0,0,2.5,2.5c.61,0,1.22.07,1.82.12s-.14,0,.38,0l1,.18a23.29,23.29,0,0,1,3.27.9l.42.16c-.26-.11-.31-.13-.14-.05s.42.21.62.33.56.44.14.06c0,.05.61.54.34.29-.11-.16-.11-.15,0,0s.12.2,0-.12c.16.46.06-.46,0,0,.06-.36.06-.42,0-.15.16-.33.19-.41.1-.24-.27.55.28-.31,0,.05s.4-.2,0,0l-.3.17.12,0c-.11.18-.83.25-1,.29s-1,.2-.21.06c-.24,0-.48,0-.72.08l-1.91.21c-2.46.27-4.92.5-7.39.65a2.5,2.5,0,0,0,0,5Z" transform="translate(0.5 0.5)"/><path class="cls-2" d="M136.83,69.89a4.74,4.74,0,0,0-2.33,2.72,5.31,5.31,0,0,0-.15,3.13,4.79,4.79,0,0,0,2.15,2.9,6.88,6.88,0,0,0,4,.79,14,14,0,0,0,2.32-.34,13.56,13.56,0,0,0,2.29-.81,2.48,2.48,0,0,0,1.14-1.49,2.5,2.5,0,0,0-.25-1.93,2.53,2.53,0,0,0-1.49-1.15l-.67-.09a2.53,2.53,0,0,0-1.26.34l-.1.05.6-.26a10.07,10.07,0,0,1-2.58.7l.67-.09a8.52,8.52,0,0,1-2.14,0l.66.08a3.46,3.46,0,0,1-.88-.23l.6.26a2.8,2.8,0,0,1-.56-.32l.51.39a1.91,1.91,0,0,1-.38-.37l.39.5a2.62,2.62,0,0,1-.3-.51l.25.59a3.58,3.58,0,0,1-.18-.64l.09.66a3.75,3.75,0,0,1,0-.82l-.09.67a3.49,3.49,0,0,1,.2-.72l-.25.6a2.59,2.59,0,0,1,.34-.58l-.39.51a2.22,2.22,0,0,1,.37-.38l-.51.39a2.2,2.2,0,0,1,.47-.27,2.49,2.49,0,0,0,1.15-1.49,2.5,2.5,0,0,0-1.75-3.08l-.66-.09a2.53,2.53,0,0,0-1.26.34Z" transform="translate(0.5 0.5)"/><path class="cls-2" d="M45.16,63.28S39.46,59.84,43,52.13s-.23-9.55,10.69-16.8,12.18-3,19.86-7.51c8.91-5.27,16.7-13.63,22.21-9.09S106.05,29.4,114,38.89,126.67,49,126.67,55.29c0,10.26-7.85,19.05-13.25,19.51S88.11,69.92,83,69.92,70.68,62.75,65,63.28,45.16,63.28,45.16,63.28Z" transform="translate(0.5 0.5)"/><path class="cls-2" d="M55,63.5s-2.9-12.33,11.63-19.27S89.08,23.84,90.8,17.37" transform="translate(0.5 0.5)"/><path class="cls-2" d="M123.13,66.65c-1.16-1.09-15.15-5.6-17.22-18.9S95.37,19.26,90.8,17.37" transform="translate(0.5 0.5)"/><path class="cls-2" d="M83,69.92a113.05,113.05,0,0,1,3.83-16.73c3-10.13,3.89-32.59,3.13-35.42" transform="translate(0.5 0.5)"/><path class="cls-2" d="M89.27,30s-14.73-.73-16.1-12.1S82.51-3.24,95.26,1s15.27,8.67,12,18.29C103.61,30,89.27,30,89.27,30Z" transform="translate(0.5 0.5)"/><path class="cls-2" d="M169.85,108.51c-4.09,4.42-2.11,1.25-5.88,2.66s-5.92,8.14-9.77,9.34-9.44-3.11-13.35-2.13-6.8,7.43-10.75,8.19-9-4.14-13-3.6-7.57,6.64-11.58,7-8.56-5.1-12.57-5c-4.18.13-8.25,5.81-12.24,5.72-4.2-.09-8-6-12-6.24-4.21-.3-8.83,4.94-12.76,4.46-4.22-.51-7.45-6.72-11.32-7.38-4.25-.73-9.36,4-13.13,3.19-4.31-1-6.92-7.46-10.53-8.45-4.52-1.25-10.11,2.94-13.4,1.84-7.37-2.48-2-1.36-7.55-3.9l18.26,36.58c76,25,132.17,0,132.17,0Z" transform="translate(0.5 0.5)"/><path class="cls-2" d="M164.94,99.84a22.6,22.6,0,0,1-.05,5,16.08,16.08,0,0,1-.42,2.32,5,5,0,0,1-.89,2c-.29.38.22-.19-.07.07l-.35.3s-.4.3-.2.17-.2.11-.24.13c-.59.33-1.21.61-1.83.88a13.61,13.61,0,0,0-3.83,2.27,2.5,2.5,0,1,0,3.31,3.74,5.63,5.63,0,0,1,.45-.38c.32-.25-.47.25.16-.11a10.72,10.72,0,0,1,1-.5c.65-.32,1.32-.59,2-.9a9.17,9.17,0,0,0,4.18-3.4,15.65,15.65,0,0,0,1.78-6.22,27.74,27.74,0,0,0,0-6.44,2.5,2.5,0,1,0-4.89,1Z" transform="translate(0.5 0.5)"/></svg>